<svg width="44" height="44" viewBox="0 0 44 44" fill="none" xmlns="http://www.w3.org/2000/svg">
<path d="M30.4615 20.4615C30.4615 22.1351 29.9653 23.771 29.0355 25.1625C28.1057 26.554 26.7842 27.6385 25.2381 28.279C23.692 28.9194 21.9906 29.087 20.3492 28.7605C18.7079 28.434 17.2002 27.6281 16.0168 26.4447C14.8334 25.2614 14.0275 23.7537 13.7011 22.1123C13.3746 20.4709 13.5421 18.7696 14.1826 17.2234C14.823 15.6773 15.9075 14.3558 17.299 13.426C18.6905 12.4963 20.3265 12 22 12C24.2434 12.0025 26.3941 12.8948 27.9804 14.4811C29.5667 16.0674 30.459 18.2182 30.4615 20.4615ZM42 22C42 25.9556 40.827 29.8224 38.6294 33.1114C36.4318 36.4004 33.3082 38.9638 29.6537 40.4776C25.9991 41.9913 21.9778 42.3874 18.0982 41.6157C14.2186 40.844 10.6549 38.9392 7.85787 36.1421C5.06082 33.3451 3.15601 29.7814 2.3843 25.9018C1.6126 22.0222 2.00867 18.0008 3.52242 14.3463C5.03617 10.6918 7.59962 7.56823 10.8886 5.37061C14.1776 3.17298 18.0444 2 22 2C27.3026 2.0056 32.3864 4.11453 36.136 7.86405C39.8855 11.6136 41.9944 16.6974 42 22ZM38.9231 22C38.9206 19.7222 38.4588 17.4682 37.5653 15.373C36.6717 13.2777 35.3648 11.3842 33.7227 9.80564C32.0806 8.22707 30.137 6.99588 28.0081 6.18569C25.8792 5.37551 23.6088 5.00298 21.3327 5.09038C12.275 5.44038 5.05193 12.9846 5.07693 22.0481C5.08562 26.1741 6.60736 30.1536 9.35385 33.2327C10.4724 31.6104 11.8932 30.219 13.5385 29.1346C13.6787 29.042 13.8455 28.9978 14.0133 29.0089C14.181 29.02 14.3405 29.0858 14.4673 29.1961C16.558 31.0045 19.2299 31.9997 21.9942 31.9997C24.7585 31.9997 27.4304 31.0045 29.5212 29.1961C29.648 29.0858 29.8075 29.02 29.9752 29.0089C30.143 28.9978 30.3097 29.042 30.45 29.1346C32.0974 30.2184 33.5202 31.6098 34.6404 33.2327C37.4005 30.1424 38.9251 26.1434 38.9231 22Z" fill="black"/>
<rect x="30.5" y="28.5" width="13" height="13" rx="6.5" fill="black"/>
<rect x="30.5" y="28.5" width="13" height="13" rx="6.5" stroke="white"/>
<path d="M32.5899 33.2149C32.7539 33.051 32.9763 32.959 33.2082 32.959C33.4401 32.959 33.6625 33.051 33.8265 33.2149L36.9999 36.3882L40.1732 33.2149C40.3391 33.0603 40.5585 32.9762 40.7852 32.9802C41.0118 32.9842 41.2281 33.076 41.3884 33.2363C41.5488 33.3966 41.6406 33.6129 41.6446 33.8396C41.6486 34.0663 41.5644 34.2857 41.4099 34.4515L37.6182 38.2432C37.4542 38.4071 37.2318 38.4991 36.9999 38.4991C36.768 38.4991 36.5456 38.4071 36.3815 38.2432L32.5899 34.4515C32.426 34.2875 32.334 34.0651 32.334 33.8332C32.334 33.6013 32.426 33.3789 32.5899 33.2149Z" fill="white"/>
</svg>
