<svg width="26" height="22" viewBox="0 0 26 22" fill="none" xmlns="http://www.w3.org/2000/svg">
	<path d="M25.1317 9.54416L22.5487 4.95912C22.3596 4.62618 22.0939 4.3507 21.7769 4.15902C21.46 3.96734 21.1024 3.86586 20.7383 3.8643H18.7104V3.54207C18.7104 3.07672 18.6245 2.61594 18.4577 2.18621C18.2908 1.75648 18.0463 1.36626 17.7381 1.03796C17.1151 0.373629 16.2715 0.000447517 15.392 7.74273e-05H3.31961C2.66256 -0.00457681 2.01915 0.200694 1.47173 0.589617C0.924321 0.978541 0.49781 1.53342 0.246789 2.18325C0.0807021 2.61405 -0.00317588 3.07605 9.19355e-05 3.54207V15.1347C0.000773032 15.6792 0.185768 16.2049 0.520827 16.6146C0.855886 17.0244 1.31832 17.2903 1.8225 17.3632C1.81686 17.4797 1.81686 17.5957 1.8225 17.7113C1.8182 18.2602 1.91753 18.8043 2.11453 19.3111C2.31152 19.8179 2.60213 20.2769 2.96892 20.6606C3.32884 21.0615 3.75967 21.3818 4.23634 21.6028C4.71301 21.8239 5.226 21.9413 5.74547 21.9482C6.78225 21.9382 7.77413 21.4941 8.50871 20.7111C9.24263 19.9293 9.65964 18.8699 9.66964 17.7618C9.67584 17.6549 9.67584 17.5477 9.66964 17.4408H16.3317C16.3255 17.5477 16.3255 17.6549 16.3317 17.7618C16.3272 18.3109 16.4264 18.8553 16.6234 19.3623C16.8204 19.8693 17.1111 20.3285 17.4781 20.7124C17.8383 21.1136 18.2695 21.434 18.7466 21.6551C19.2237 21.8762 19.7372 21.9934 20.257 22C21.2938 21.9899 22.2857 21.5458 23.0203 20.7628C23.7538 19.9808 24.1703 18.9215 24.18 17.8135C24.1863 17.7062 24.1863 17.5986 24.18 17.4913H25.0942C25.3328 17.4877 25.5606 17.3849 25.7297 17.2047C25.8987 17.0246 25.9956 16.7812 26 16.5259V12.804C26 11.6523 25.6989 10.5238 25.1317 9.54416ZM7.84602 17.71C7.84638 18.0058 7.79098 18.2987 7.68314 18.5711C7.5753 18.8435 7.41723 19.0898 7.21839 19.2953C6.81608 19.7044 6.2823 19.9325 5.72733 19.9325C5.17235 19.9325 4.63858 19.7044 4.23626 19.2953C4.04016 19.0859 3.88488 18.8369 3.77942 18.5628C3.67397 18.2886 3.62044 17.9948 3.62194 17.6984C3.61626 17.3923 3.67408 17.0886 3.79124 16.8093C3.95087 16.4043 4.22538 16.0626 4.57487 15.8297C4.93232 15.5768 5.35338 15.4468 5.78175 15.457C6.19049 15.457 6.58956 15.5864 6.92816 15.8297C7.27523 16.0665 7.54853 16.4068 7.7142 16.8093C7.83272 17.0875 7.8956 17.3917 7.89439 17.6984L7.84602 17.71ZM11.769 11.2705H5.73458C5.41511 11.2702 5.10875 11.1346 4.88239 10.8933C4.65604 10.652 4.52809 10.3247 4.52649 9.98287C4.52617 9.81329 4.55719 9.64531 4.61776 9.48861C4.67833 9.3319 4.76725 9.18956 4.87942 9.06977C4.99158 8.94998 5.12477 8.8551 5.27133 8.7906C5.41788 8.7261 5.57491 8.69325 5.73337 8.69393H11.769C12.0885 8.69461 12.3947 8.83055 12.6208 9.07205C12.8469 9.31355 12.9746 9.64099 12.9759 9.98287C12.976 10.1523 12.9449 10.3202 12.8842 10.4767C12.8236 10.6333 12.7347 10.7755 12.6225 10.8951C12.5104 11.0148 12.3772 11.1095 12.2307 11.174C12.0843 11.2384 11.9273 11.2712 11.769 11.2705ZM11.769 6.83947H5.73458C5.41511 6.83913 5.10875 6.70352 4.88239 6.46226C4.65604 6.221 4.52809 5.8937 4.52649 5.55182C4.52633 5.38235 4.55747 5.21452 4.61811 5.05796C4.67875 4.90141 4.7677 4.75922 4.87984 4.63956C4.99199 4.51991 5.12513 4.42515 5.27161 4.36073C5.41808 4.29631 5.57501 4.2635 5.73337 4.26418H11.769C12.0882 4.26486 12.3943 4.40062 12.6204 4.64184C12.8465 4.88306 12.9743 5.21017 12.9759 5.55182C12.976 5.72129 12.9449 5.88913 12.8842 6.04568C12.8236 6.20224 12.7347 6.34443 12.6225 6.46408C12.5104 6.58373 12.3772 6.67849 12.2307 6.74292C12.0843 6.80734 11.9273 6.84015 11.769 6.83947ZM22.331 17.71C22.3312 18.0059 22.2756 18.2989 22.1676 18.5712C22.0595 18.8436 21.9012 19.0899 21.7022 19.2953C21.2999 19.704 20.7664 19.9319 20.2117 19.9319C19.657 19.9319 19.1235 19.704 18.7212 19.2953C18.5249 19.086 18.3694 18.8371 18.2637 18.5629C18.1581 18.2888 18.1044 17.9949 18.1057 17.6984C18.1006 17.2291 18.2409 16.7713 18.5048 16.3965C18.8023 15.9733 19.2291 15.6718 19.7116 15.5463H20.014C20.0692 15.5322 20.1268 15.5322 20.1821 15.5463H20.4239C20.7903 15.5916 21.1398 15.7378 21.4373 15.972C21.736 16.2063 21.9694 16.522 22.1133 16.887C22.233 17.1652 22.2947 17.4693 22.2947 17.7747L22.331 17.71Z" fill="#909090" />
</svg>
