<svg width="21" height="25" viewBox="0 0 21 25" fill="none" xmlns="http://www.w3.org/2000/svg">
	<path fill-rule="evenodd" clip-rule="evenodd" d="M3.81141 7.28181C3.61311 7.09634 3.35083 6.99536 3.07982 7.00016C2.80881 7.00496 2.55024 7.11516 2.35858 7.30754C2.16692 7.49992 2.05713 7.75946 2.05235 8.03148C2.04757 8.3035 2.14817 8.56676 2.33295 8.76581L7.52153 13.9738L2.33295 19.1818C2.23017 19.2779 2.14773 19.3939 2.09056 19.5227C2.03338 19.6515 2.00264 19.7905 2.00016 19.9315C1.99768 20.0725 2.02352 20.2125 2.07613 20.3432C2.12875 20.474 2.20706 20.5928 2.30639 20.6925C2.40573 20.7922 2.52405 20.8708 2.65431 20.9236C2.78456 20.9764 2.92408 21.0023 3.06454 20.9998C3.205 20.9973 3.34352 20.9665 3.47184 20.9091C3.60016 20.8517 3.71565 20.769 3.81141 20.6658L9 15.4578L14.1886 20.6658C14.2844 20.769 14.3998 20.8517 14.5282 20.9091C14.6565 20.9665 14.795 20.9973 14.9355 20.9998C15.0759 21.0023 15.2154 20.9764 15.3457 20.9236C15.4759 20.8708 15.5943 20.7922 15.6936 20.6925C15.7929 20.5928 15.8713 20.474 15.9239 20.3432C15.9765 20.2125 16.0023 20.0725 15.9998 19.9315C15.9974 19.7905 15.9666 19.6515 15.9094 19.5227C15.8523 19.3939 15.7698 19.2779 15.6671 19.1818L10.4785 13.9738L15.6671 8.76581C15.8518 8.56676 15.9524 8.3035 15.9476 8.03148C15.9429 7.75946 15.8331 7.49992 15.6414 7.30754C15.4498 7.11516 15.1912 7.00496 14.9202 7.00016C14.6492 6.99536 14.3869 7.09634 14.1886 7.28181L9 12.4898L3.81141 7.28181Z" fill="black" />
</svg>
