<svg width="30" height="30" viewBox="0 0 30 30" fill="none" xmlns="http://www.w3.org/2000/svg">
	<rect width="30" height="30" rx="15" fill="#101E33" />
	<path d="M20.4721 7L23 9.52791L21.0729 11.4559L18.545 8.92795L20.4721 7ZM11.2132 18.7868H13.7411L19.8814 12.6465L17.3535 10.1186L11.2132 16.2589V18.7868Z" fill="white" />
	<path d="M20.4822 21.3147H11.3463C11.3244 21.3147 11.3017 21.3232 11.2798 21.3232C11.2519 21.3232 11.2241 21.3156 11.1955 21.3147H8.68527V9.5178H14.4548L16.1401 7.83253H8.68527C7.75585 7.83253 7 8.58753 7 9.5178V21.3147C7 22.245 7.75585 23 8.68527 23H20.4822C20.9292 23 21.3578 22.8224 21.6739 22.5064C21.9899 22.1903 22.1675 21.7617 22.1675 21.3147V14.0107L20.4822 15.696V21.3147Z" fill="white" />
</svg>
