<svg width="12" height="12" viewBox="0 0 12 12" fill="none" xmlns="http://www.w3.org/2000/svg">
	<path d="M10.1041 0L12 1.89593L10.5547 3.3419L8.65873 1.44597L10.1041 0ZM3.15989 8.84011H5.05582L9.66105 4.23489L7.76511 2.33895L3.15989 6.94418V8.84011Z" fill="black" />
	<path d="M10.1116 10.736H3.25974C3.24331 10.736 3.22625 10.7424 3.20982 10.7424C3.18896 10.7424 3.16811 10.7367 3.14662 10.736H1.26396V1.88835H5.59111L6.85507 0.624394H1.26396C0.566884 0.624394 0 1.19065 0 1.88835V10.736C0 11.4337 0.566884 12 1.26396 12H10.1116C10.4469 12 10.7684 11.8668 11.0054 11.6298C11.2424 11.3928 11.3756 11.0713 11.3756 10.736V5.25806L10.1116 6.52201V10.736Z" fill="black" />
</svg>
