<svg width="21" height="25" viewBox="0 0 21 25" fill="none" xmlns="http://www.w3.org/2000/svg">
<path fill-rule="evenodd" clip-rule="evenodd" d="M3 7.23958C3 6.91083 3.12761 6.59553 3.35474 6.36307C3.58188 6.1306 3.88995 6 4.21117 6H16.3229C16.6441 6 16.9522 6.1306 17.1793 6.36307C17.4065 6.59553 17.5341 6.91083 17.5341 7.23958V8.96343C17.534 9.40174 17.3638 9.82206 17.0609 10.1319L12.6894 14.606V20.7411C12.6894 20.8961 12.6507 21.0485 12.577 21.1838C12.5033 21.3192 12.397 21.433 12.2682 21.5145C12.1394 21.596 11.9924 21.6424 11.8411 21.6494C11.6898 21.6563 11.5393 21.6236 11.4039 21.5543L8.40263 20.0189C8.23498 19.9331 8.09399 19.8012 7.99544 19.638C7.89689 19.4748 7.84469 19.2868 7.84469 19.095V14.606L3.47316 10.1319C3.17029 9.82206 3.00009 9.40174 3 8.96343V7.23958Z" fill="black"/>
</svg>
