<svg width="24" height="24" viewBox="0 0 24 24" fill="none" xmlns="http://www.w3.org/2000/svg">
<path d="M6 17V6L4.2 3.6C3.95 3.26667 3.91667 2.91667 4.1 2.55C4.28334 2.18333 4.58334 2 5 2H15.775C16.3917 2 16.9167 2.21667 17.35 2.65C17.7833 3.08333 18 3.60833 18 4.225V5H20C20.55 5 21.021 5.196 21.413 5.588C21.805 5.98 22.0007 6.45067 22 7V12C22 12.55 21.8043 13.021 21.413 13.413C21.0217 13.805 20.5507 14.0007 20 14H18V17C18 17.55 17.8043 18.021 17.413 18.413C17.0217 18.805 16.5507 19.0007 16 19H8C7.45 19 6.97934 18.8043 6.588 18.413C6.19667 18.0217 6.00067 17.5507 6 17ZM18 12H20V7H18V12ZM13.5 5C13.0833 5 12.7293 5.146 12.438 5.438C12.1467 5.73 12.0007 6.084 12 6.5V14.5C12 14.9167 12.146 15.271 12.438 15.563C12.73 15.855 13.084 16.0007 13.5 16C13.916 15.9993 14.2703 15.8537 14.563 15.563C14.8557 15.2723 15.0013 14.918 15 14.5V6.5C15 6.08333 14.8543 5.72933 14.563 5.438C14.2717 5.14667 13.9173 5.00067 13.5 5ZM4 22C3.71667 22 3.47934 21.904 3.288 21.712C3.09667 21.52 3.00067 21.2827 3 21C2.99934 20.7173 3.09534 20.48 3.288 20.288C3.48067 20.096 3.718 20 4 20H20C20.2833 20 20.521 20.096 20.713 20.288C20.905 20.48 21.0007 20.7173 21 21C20.9993 21.2827 20.9033 21.5203 20.712 21.713C20.5207 21.9057 20.2833 22.0013 20 22H4Z" fill="black"/>
</svg>
