<svg width="22" height="24" viewBox="0 0 22 24" fill="none" xmlns="http://www.w3.org/2000/svg">
	<path d="M12.9823 23.2434C15.9703 20.6108 21.2863 15.2325 21.2863 10.2968C21.2863 7.56595 20.2026 4.94691 18.2737 3.01587C16.3447 1.08484 13.7285 0 11.0006 0C8.27262 0 5.65641 1.08484 3.72746 3.01587C1.79851 4.94691 0.714844 7.56595 0.714844 10.2968C0.714844 15.2325 6.02913 20.6108 9.01884 23.2434C9.56418 23.7307 10.2696 24 11.0006 24C11.7315 24 12.4369 23.7307 12.9823 23.2434ZM7.57199 10.2968C7.57199 9.38654 7.93321 8.51353 8.57619 7.86985C9.21917 7.22618 10.0912 6.86456 11.0006 6.86456C11.9099 6.86456 12.7819 7.22618 13.4249 7.86985C14.0679 8.51353 14.4291 9.38654 14.4291 10.2968C14.4291 11.2071 14.0679 12.0802 13.4249 12.7238C12.7819 13.3675 11.9099 13.7291 11.0006 13.7291C10.0912 13.7291 9.21917 13.3675 8.57619 12.7238C7.93321 12.0802 7.57199 11.2071 7.57199 10.2968Z" fill="#909090" />
</svg>
