<svg width="10" height="18" viewBox="0 0 10 18" fill="none" xmlns="http://www.w3.org/2000/svg">
	<path d="M0.340146 17.6514C0.44725 17.7619 0.574485 17.8496 0.714564 17.9094C0.854644 17.9692 1.00481 18 1.15648 18C1.30814 18 1.45831 17.9692 1.59839 17.9094C1.73847 17.8496 1.8657 17.7619 1.97281 17.6514L9.73025 9.66926C9.81576 9.58146 9.8836 9.47716 9.92989 9.36234C9.97617 9.24752 10 9.12443 10 9.00013C10 8.87582 9.97617 8.75274 9.92989 8.63792C9.8836 8.5231 9.81576 8.4188 9.73025 8.33099L1.97281 0.348804C1.52083 -0.116268 0.792126 -0.116268 0.340146 0.348804C-0.111834 0.813879 -0.111834 1.56369 0.340146 2.02876L7.11061 8.99538L0.330922 15.9715C-0.111834 16.4366 -0.111834 17.1864 0.340146 17.6514Z" fill="white" />
</svg>
