<svg width="20" height="18" viewBox="0 0 20 18" fill="none" xmlns="http://www.w3.org/2000/svg">
	<path d="M14 3.5H16V17.5H4V3.5H6V2.5C6 1.96957 6.21071 1.46086 6.58579 1.08579C6.96086 0.710714 7.46957 0.5 8 0.5H12C12.5304 0.5 13.0391 0.710714 13.4142 1.08579C13.7893 1.46086 14 1.96957 14 2.5V3.5ZM17 3.5H18C18.5304 3.5 19.0391 3.71071 19.4142 4.08579C19.7893 4.46086 20 4.96957 20 5.5V15.5C20 16.0304 19.7893 16.5391 19.4142 16.9142C19.0391 17.2893 18.5304 17.5 18 17.5H17V3.5ZM3 3.5V17.5H2C1.46957 17.5 0.960859 17.2893 0.585786 16.9142C0.210714 16.5391 0 16.0304 0 15.5V5.5C0 4.4 0.9 3.5 2 3.5H3ZM8 2.5V3.5H12V2.5H8Z" fill="#909090" />
</svg>
