<svg width="23" height="21" viewBox="0 0 23 21" fill="none" xmlns="http://www.w3.org/2000/svg">
	<path d="M15.8472 13.4722L15.2911 14.0318C15.2911 14.0318 13.9674 15.361 10.3558 11.7317C6.74412 8.10233 8.06777 6.77315 8.06777 6.77315L8.41733 6.41985C9.28143 5.55267 9.36332 4.15924 8.60921 3.14135L7.06922 1.06234C6.13545 -0.197674 4.33269 -0.36444 3.26325 0.710275L1.34437 2.63735C0.815156 3.171 0.460713 3.8603 0.503491 4.62619C0.61349 6.58662 1.49104 10.8027 6.38479 15.7217C11.5755 20.9371 16.4461 21.1447 18.437 20.9569C19.0677 20.8976 19.6153 20.574 20.0565 20.1293L21.792 18.385C22.9653 17.2078 22.6353 15.188 21.1345 14.3641L18.8 13.0806C17.8149 12.5408 16.6172 12.6989 15.8472 13.4722Z" fill="#909090" />
</svg>
