<svg width="22" height="23" viewBox="0 0 22 23" fill="none" xmlns="http://www.w3.org/2000/svg">
	<path d="M2.22956 0.387337C1.27463 -0.114975 0.217638 0.844087 0.548416 1.91227L2.6934 8.83384C2.75406 9.02938 2.8645 9.20367 3.0127 9.33775C3.16091 9.47184 3.3412 9.56058 3.53397 9.59434L12.0092 11.081C12.4554 11.1598 12.4554 11.8348 12.0092 11.9135L3.5345 13.4002C3.34173 13.434 3.16144 13.5227 3.01324 13.6568C2.86504 13.7909 2.7546 13.9652 2.69393 14.1607L0.548416 21.0862C0.217103 22.155 1.27463 23.114 2.22956 22.6117L21.1967 12.6318C22.0832 12.165 22.0832 10.8335 21.1967 10.3672L2.22956 0.387337Z" fill="black" />
</svg>
