<svg width="20" height="20" viewBox="0 0 20 20" fill="none" xmlns="http://www.w3.org/2000/svg">
	<path d="M12.1467 7.15C12.5057 7.14981 12.8553 7.26529 13.1432 7.47927C13.4312 7.69324 13.6422 7.99425 13.7448 8.3375H13.0952C12.4006 8.3375 11.7345 8.61274 11.2433 9.10268C10.7521 9.59262 10.4762 10.2571 10.4762 10.95V10.9975C9.9384 11.107 9.45505 11.3985 9.10795 11.8226C8.76085 12.2468 8.57132 12.7775 8.57143 13.325V17.4936C7.6247 17.2779 6.77948 16.7479 6.17422 15.9904C5.56897 15.2328 5.23957 14.2927 5.24 13.324V8.8125C5.24 7.8948 5.98571 7.15 6.90667 7.15H12.1467ZM16.4286 8.3375C17.1212 8.33749 17.7857 8.61117 18.2765 9.09865C18.7673 9.58612 19.0446 10.2477 19.0476 10.9386V8.8125C19.0476 8.37158 18.872 7.94871 18.5595 7.63693C18.2469 7.32516 17.823 7.15 17.381 7.15H14.1667C14.4448 7.48535 14.64 7.891 14.7229 8.3375H16.4286ZM4.88667 7.15C4.54254 7.56112 4.33606 8.06939 4.29619 8.6035L4.28667 8.8125V13.324C4.28667 14.1287 4.46952 14.8906 4.79524 15.5708C4.48032 15.6563 4.15175 15.6994 3.80952 15.7C3.30917 15.7 2.81372 15.6017 2.35146 15.4107C1.88921 15.2196 1.46921 14.9396 1.11545 14.5867C0.761688 14.2337 0.4811 13.8147 0.28971 13.3535C0.0983191 12.8924 -0.000124969 12.3982 1.19058e-07 11.899V8.8125C1.57425e-05 8.39527 0.157306 7.9933 0.440648 7.68638C0.723989 7.37946 1.11267 7.19003 1.52952 7.1557L1.66667 7.15H4.88667ZM9.52381 0.5C10.2816 0.5 11.0083 0.800267 11.5441 1.33475C12.0799 1.86922 12.381 2.59413 12.381 3.35C12.381 4.10587 12.0799 4.83078 11.5441 5.36525C11.0083 5.89973 10.2816 6.2 9.52381 6.2C8.76605 6.2 8.03932 5.89973 7.5035 5.36525C6.96769 4.83078 6.66667 4.10587 6.66667 3.35C6.66667 2.59413 6.96769 1.86922 7.5035 1.33475C8.03932 0.800267 8.76605 0.5 9.52381 0.5ZM15.7143 1.45C16.3458 1.45 16.9514 1.70022 17.3979 2.14562C17.8444 2.59102 18.0952 3.19511 18.0952 3.825C18.0952 4.45489 17.8444 5.05898 17.3979 5.50438C16.9514 5.94978 16.3458 6.2 15.7143 6.2C15.0828 6.2 14.4772 5.94978 14.0307 5.50438C13.5842 5.05898 13.3333 4.45489 13.3333 3.825C13.3333 3.19511 13.5842 2.59102 14.0307 2.14562C14.4772 1.70022 15.0828 1.45 15.7143 1.45ZM3.33333 1.45C3.9648 1.45 4.57041 1.70022 5.01692 2.14562C5.46344 2.59102 5.71429 3.19511 5.71429 3.825C5.71429 4.45489 5.46344 5.05898 5.01692 5.50438C4.57041 5.94978 3.9648 6.2 3.33333 6.2C2.70187 6.2 2.09626 5.94978 1.64975 5.50438C1.20323 5.05898 0.952381 4.45489 0.952381 3.825C0.952381 3.19511 1.20323 2.59102 1.64975 2.14562C2.09626 1.70022 2.70187 1.45 3.33333 1.45ZM11.4286 11.9H10.9524C10.5735 11.9 10.2101 12.0501 9.94223 12.3174C9.67432 12.5846 9.52381 12.9471 9.52381 13.325V14.75H11.9048V14.5125C11.9048 14.3235 11.98 14.1423 12.114 14.0087C12.2479 13.8751 12.4296 13.8 12.619 13.8C12.8085 13.8 12.9902 13.8751 13.1241 14.0087C13.2581 14.1423 13.3333 14.3235 13.3333 14.5125V14.75H16.1905V14.5125C16.1905 14.3235 16.2657 14.1423 16.3997 14.0087C16.5336 13.8751 16.7153 13.8 16.9048 13.8C17.0942 13.8 17.2759 13.8751 17.4098 14.0087C17.5438 14.1423 17.619 14.3235 17.619 14.5125V14.75H20V13.325C20 12.9471 19.8495 12.5846 19.5816 12.3174C19.3137 12.0501 18.9503 11.9 18.5714 11.9H18.0952V10.95C18.0952 10.5091 17.9196 10.0862 17.6071 9.77443C17.2945 9.46266 16.8706 9.2875 16.4286 9.2875H13.0952C12.6532 9.2875 12.2293 9.46266 11.9167 9.77443C11.6042 10.0862 11.4286 10.5091 11.4286 10.95V11.9ZM12.8571 10.95C12.8571 10.887 12.8822 10.8266 12.9269 10.7821C12.9715 10.7375 13.0321 10.7125 13.0952 10.7125H16.4286C16.4917 10.7125 16.5523 10.7375 16.5969 10.7821C16.6416 10.8266 16.6667 10.887 16.6667 10.95V11.9H12.8571V10.95ZM9.52381 18.075V16.175H11.9048V16.8875C11.9048 17.0765 11.98 17.2577 12.114 17.3913C12.2479 17.5249 12.4296 17.6 12.619 17.6C12.8085 17.6 12.9902 17.5249 13.1241 17.3913C13.2581 17.2577 13.3333 17.0765 13.3333 16.8875V16.175H16.1905V16.8875C16.1905 17.0765 16.2657 17.2577 16.3997 17.3913C16.5336 17.5249 16.7153 17.6 16.9048 17.6C17.0942 17.6 17.2759 17.5249 17.4098 17.3913C17.5438 17.2577 17.619 17.0765 17.619 16.8875V16.175H20V18.075C20 18.4529 19.8495 18.8154 19.5816 19.0826C19.3137 19.3499 18.9503 19.5 18.5714 19.5H10.9524C10.5735 19.5 10.2101 19.3499 9.94223 19.0826C9.67432 18.8154 9.52381 18.4529 9.52381 18.075Z" fill="#909090" />
</svg>
