<svg width="18" height="20" viewBox="0 0 18 20" fill="none" xmlns="http://www.w3.org/2000/svg">
	<path d="M13.03 11.4265C13.7691 11.4265 14.4201 11.8047 14.802 12.3791H8.99811C8.36983 12.3791 7.76728 12.63 7.32303 13.0767C6.87877 13.5233 6.62918 14.129 6.62918 14.7607V18.5711C6.62918 18.7254 6.6434 18.8753 6.67183 19.0207C3.88692 18.8435 1.80512 17.83 0.484207 15.9657C0.169397 15.5219 0.0001336 14.9904 0 14.4453V13.5689C0.000251109 13.0008 0.224856 12.456 0.624456 12.0543C1.02406 11.6526 1.56596 11.4268 2.13108 11.4265H13.03ZM7.57675 0C8.19893 -9.32055e-09 8.81502 0.123199 9.38984 0.362565C9.96467 0.60193 10.487 0.952773 10.9269 1.39506C11.3669 1.83735 11.7158 2.36242 11.9539 2.9403C12.192 3.51818 12.3146 4.13755 12.3146 4.76304C12.3146 5.38853 12.192 6.0079 11.9539 6.58577C11.7158 7.16365 11.3669 7.68873 10.9269 8.13102C10.487 8.57331 9.96467 8.92415 9.38984 9.16351C8.81502 9.40288 8.19893 9.52608 7.57675 9.52608C6.3202 9.52608 5.11511 9.02426 4.22659 8.13102C3.33808 7.23777 2.83891 6.02628 2.83891 4.76304C2.83891 3.4998 3.33808 2.28831 4.22659 1.39506C5.11511 0.501819 6.3202 0 7.57675 0ZM7.57675 14.7607C7.57675 14.3817 7.7265 14.0182 7.99306 13.7503C8.25961 13.4823 8.62114 13.3317 8.99811 13.3317H16.5786C16.9556 13.3317 17.3171 13.4823 17.5837 13.7503C17.8503 14.0182 18 14.3817 18 14.7607V18.5711C18 18.9501 17.8503 19.3135 17.5837 19.5815C17.3171 19.8495 16.9556 20 16.5786 20H8.99811C8.62114 20 8.25961 19.8495 7.99306 19.5815C7.7265 19.3135 7.57675 18.9501 7.57675 18.5711V14.7607ZM17.0524 15.237C16.8011 15.237 16.5601 15.1366 16.3824 14.958C16.2047 14.7793 16.1049 14.537 16.1049 14.2844H15.1573C15.1573 14.7896 15.357 15.2742 15.7124 15.6315C16.0678 15.9888 16.5498 16.1896 17.0524 16.1896V15.237ZM17.0524 17.1422C16.5498 17.1422 16.0678 17.3429 15.7124 17.7002C15.357 18.0575 15.1573 18.5421 15.1573 19.0474H16.1049C16.1049 18.7947 16.2047 18.5524 16.3824 18.3738C16.5601 18.1951 16.8011 18.0948 17.0524 18.0948V17.1422ZM9.47189 14.2844C9.47189 14.537 9.37206 14.7793 9.19435 14.958C9.01665 15.1366 8.77563 15.237 8.52432 15.237V16.1896C9.02694 16.1896 9.50898 15.9888 9.86438 15.6315C10.2198 15.2742 10.4195 14.7896 10.4195 14.2844H9.47189ZM10.4195 19.0474C10.4195 18.5421 10.2198 18.0575 9.86438 17.7002C9.50898 17.3429 9.02694 17.1422 8.52432 17.1422V18.0948C8.77563 18.0948 9.01665 18.1951 9.19435 18.3738C9.37206 18.5524 9.47189 18.7947 9.47189 19.0474H10.4195ZM14.4466 16.6659C14.4466 16.2237 14.2719 15.7997 13.9609 15.4871C13.65 15.1744 13.2282 14.9988 12.7884 14.9988C12.3486 14.9988 11.9268 15.1744 11.6158 15.4871C11.3048 15.7997 11.1301 16.2237 11.1301 16.6659C11.1301 17.108 11.3048 17.532 11.6158 17.8447C11.9268 18.1573 12.3486 18.3329 12.7884 18.3329C13.2282 18.3329 13.65 18.1573 13.9609 17.8447C14.2719 17.532 14.4466 17.108 14.4466 16.6659Z" fill="#909090" />
</svg>
